# xmcd
#
# Track frame offsets:
# 150
# 15065
# 27435
# 36089
# 49775
# 62470
# 72304
# 78789
# 87594
# 98381
# 111135
# 124557
# 135105
#
# Disc length: 2056 seconds
#
#
# Revision: 0
# Processed by: cddbd v1.5.2PL0 Copyright (c) Steve Scherf et al.
# Submitted via: FreeRIP 2.60 
#
DISCID=8e08060d
DTITLE=Earl Gleason - Truck Driving Man
DYEAR=1900
DGENRE=Country
TTITLE0=Truck Drivin' Man
TTITLE1=To Canaan's Land
TTITLE2=Waitin' in Line
TTITLE3=The Eastern Gate
TTITLE4=Brush Arbor Meeting
TTITLE5=This World is not my Home
TTITLE6=Battle of Jericho
TTITLE7=We're Runnin' Out
TTITLE8=Jesus Reached Down
TTITLE9=Just a Closer Walk
TTITLE10=O' Come Angel Band
TTITLE11=Church in the Wildwood
TTITLE12=Precious Memories
EXTD=Earl Gleason - Lead Singer, Rythm Guitar\nErnie Tarr - Tenor Singer\nDon Wood - Bass Singer, Harmonica\nRalph Higdon - Lead Guitar\nLarry Stephens - Drums\nChuck Germain - Banjo\nGary Harper - Bass Guitar
EXTT0=
EXTT1=
EXTT2=
EXTT3=
EXTT4=
EXTT5=
EXTT6=
EXTT7=
EXTT8=
EXTT9=
EXTT10=
EXTT11=
EXTT12=
PLAYORDER=
